<svg width="127" height="143" viewBox="0 0 127 143" fill="none" xmlns="http://www.w3.org/2000/svg">
<rect x="14.5" y="111" width="32" height="32" fill="#FFB983"/>
<rect x="54.5" y="79" width="32" height="64" fill="#FFAC6B"/>
<rect x="94.5" y="47" width="32" height="96" fill="#FF9746"/>
<path d="M0.557277 99.8333C-0.0870936 100.354 -0.187388 101.298 0.333264 101.943C0.853915 102.587 1.79835 102.687 2.44272 102.167L1.5 101L0.557277 99.8333ZM126.5 0L109.39 2.69107L120.275 16.1634L126.5 0ZM1.5 101L2.44272 102.167L116.942 9.65124L115.999 8.48451L115.057 7.31777L0.557277 99.8333L1.5 101Z" fill="#FF6B75"/>
<path d="M1.82 15.784V15.208H3.34V15.784C3.34 16.92 3.964 17.736 5.244 17.736C6.556 17.736 7.132 16.936 7.132 15.736V7.432H8.7V15.8C8.7 17.88 7.308 19.192 5.244 19.192C3.036 19.192 1.82 17.784 1.82 15.784ZM16.4648 11.176H17.9528V19H16.6088L16.4488 17.816C16.0008 18.632 14.9608 19.192 13.8088 19.192C11.9848 19.192 10.9608 17.96 10.9608 16.04V11.176H12.4648V15.544C12.4648 17.224 13.1848 17.864 14.3368 17.864C15.7128 17.864 16.4648 16.984 16.4648 15.304V11.176ZM21.6389 19H20.1349V11.176H21.4949L21.6549 12.376C22.1509 11.48 23.1429 10.952 24.2469 10.952C26.3109 10.952 27.2549 12.216 27.2549 14.216V19H25.7509V14.552C25.7509 12.968 25.0149 12.328 23.8629 12.328C22.4549 12.328 21.6389 13.336 21.6389 14.856V19Z" fill="#606060"/>
</svg>
